# xmcd
#
# Track frame offsets:
#	150
#	20407
#	36957
#	53834
#	70879
#	94652
#	109884
#	125967
#	144990
#	162485
#	180360
#	199020
#	217504
#	237264
#
# Disc length: 3416 seconds
#
# Revision: 5
# Processed by: cddbd v1.5.2PL0 Copyright (c) Steve Scherf et al.
# Submitted via: dBpowerAMP V4.0
#
DISCID=c00d560e
DTITLE=Tim McGraw - Let It Go
DYEAR=2007
DGENRE=Country
TTITLE0=Last Dollar (Fly Away)
TTITLE1=I'm Workin'
TTITLE2=Let It Go
TTITLE3=Whiskey And You
TTITLE4=Suspicions
TTITLE5=Kristofferson
TTITLE6=Put Your Lovin' On Me
TTITLE7=Nothin' To Die For
TTITLE8=Between The River And Me
TTITLE9=Train #10
TTITLE10=I Need You
TTITLE11=Comin' Home
TTITLE12=Shotgun Rider
TTITLE13=If You're Reading This
EXTD=TIM McGRAW/Last Dollar[Fly Away]
EXTT0=
EXTT1=
EXTT2=
EXTT3=
EXTT4=
EXTT5=
EXTT6=
EXTT7=
EXTT8=
EXTT9=
EXTT10=
EXTT11=
EXTT12=
EXTT13=
PLAYORDER=
